<?xml version="1.0" standalone="no"?>
<!DOCTYPE svg PUBLIC "-//W3C//DTD SVG 20010904//EN"
 "http://www.w3.org/TR/2001/REC-SVG-20010904/DTD/svg10.dtd">
<svg version="1.0" xmlns="http://www.w3.org/2000/svg"
 width="2688.000000pt" height="1792.000000pt" viewBox="0 0 2688.000000 1792.000000"
 preserveAspectRatio="xMidYMid meet">

<g transform="translate(0.000000,1792.000000) scale(0.100000,-0.100000)"
fill="#000000" stroke="none">
<path d="M5226 11444 c-143 -13 -229 -29 -392 -76 -72 -20 -179 -84 -309 -183
-60 -46 -148 -109 -195 -141 -75 -51 -121 -85 -267 -196 -42 -32 -147 -142
-217 -225 -111 -133 -242 -368 -266 -477 -6 -26 -17 -60 -24 -75 -8 -14 -17
-53 -21 -86 -4 -33 -16 -82 -27 -110 -11 -27 -24 -93 -29 -145 -5 -52 -18
-140 -29 -195 -10 -55 -22 -163 -25 -240 -3 -77 -10 -162 -15 -190 -22 -126
-32 -470 -21 -710 6 -132 16 -260 21 -285 5 -25 12 -97 16 -160 3 -63 15 -153
26 -200 10 -47 23 -120 28 -162 5 -43 18 -107 30 -144 11 -36 20 -77 20 -91 0
-13 11 -57 24 -96 14 -40 28 -92 31 -117 4 -25 15 -61 25 -80 10 -20 22 -54
26 -75 3 -22 17 -61 30 -87 13 -26 24 -56 24 -66 0 -11 11 -39 24 -64 13 -25
27 -58 30 -75 4 -17 16 -39 27 -49 10 -9 19 -24 19 -33 0 -9 9 -32 20 -51 11
-19 29 -53 39 -75 10 -22 26 -46 35 -54 9 -7 16 -18 16 -24 0 -11 9 -25 85
-140 50 -75 180 -206 275 -276 144 -108 414 -282 504 -326 159 -77 394 -146
566 -166 189 -21 530 -6 1140 52 58 5 194 16 303 24 109 8 202 17 206 19 4 3
75 10 157 16 82 6 176 15 209 20 33 5 119 14 190 20 72 5 180 14 240 20 161
15 440 40 515 46 36 2 139 11 230 19 204 18 375 32 595 50 189 15 357 29 605
50 91 8 217 17 280 20 63 4 147 10 185 16 39 5 156 14 260 19 105 5 224 14
265 20 41 5 143 14 225 20 83 5 202 14 265 20 211 18 373 31 565 45 105 8 228
19 275 25 47 5 115 10 152 10 37 0 134 7 215 15 82 8 218 19 303 25 247 15
460 29 675 45 110 9 283 20 384 25 101 6 187 12 191 15 3 2 112 9 241 14 129
6 270 15 314 21 44 5 154 14 245 20 91 5 236 14 323 20 412 27 485 31 662 40
105 6 253 15 330 20 77 6 277 15 445 20 168 5 361 14 430 20 69 6 341 13 605
15 331 3 527 10 630 20 151 16 179 19 445 55 80 11 244 24 365 30 121 5 263
14 315 20 52 5 205 14 340 20 135 5 331 14 435 20 105 5 294 14 420 20 520 23
661 30 890 45 316 20 351 23 480 40 228 31 331 47 364 57 18 6 59 16 90 23 31
7 101 24 156 38 55 14 130 28 168 32 37 4 67 10 67 14 0 3 -14 12 -31 18 -28
11 -29 14 -18 35 21 40 57 78 177 186 150 134 238 228 348 366 30 38 54 74 54
81 0 6 11 22 25 35 14 13 25 29 25 35 0 7 9 20 19 29 11 10 23 31 26 47 4 15
15 39 25 52 10 13 22 37 26 53 4 16 17 47 30 70 13 22 24 47 24 56 0 8 11 36
24 62 13 26 27 64 31 84 4 20 15 56 26 79 10 23 23 70 28 105 5 35 19 88 29
118 11 30 23 91 27 135 4 44 13 107 21 140 8 33 14 111 13 175 0 132 -8 150
-88 192 -24 13 -48 30 -52 38 -4 8 -12 60 -19 115 -6 55 -15 121 -20 147 -5
25 -12 84 -16 130 -3 45 -17 126 -30 178 -13 52 -24 107 -24 123 0 16 -11 56
-24 90 -13 34 -27 78 -31 97 -4 19 -15 51 -25 70 -10 19 -21 51 -25 70 -4 19
-16 47 -26 61 -10 14 -21 38 -25 55 -4 16 -17 47 -30 70 -13 22 -24 46 -24 53
0 7 -11 27 -25 45 -14 18 -25 39 -25 47 0 13 -38 76 -77 128 -10 13 -25 33
-33 46 -8 12 -24 35 -35 51 -37 55 -221 229 -295 279 -41 28 -130 78 -198 112
-180 91 -220 114 -364 212 -36 23 -247 130 -323 162 -51 21 -137 49 -212 68
-102 26 -291 28 -628 6 -780 -50 -3278 -52 -3795 -3 -172 16 -520 16 -660 -1
-262 -30 -454 -57 -479 -66 -7 -3 -55 -12 -105 -20 -93 -15 -198 -34 -321 -58
-38 -8 -124 -22 -190 -31 -66 -9 -163 -24 -215 -31 -99 -15 -316 -29 -625 -41
-306 -11 -4418 28 -4840 46 -333 14 -637 38 -810 64 -240 37 -244 37 -615 75
-169 17 -402 31 -770 46 -461 18 -739 32 -1010 50 -224 15 -633 32 -975 40
-112 2 -240 -2 -339 -11z m16397 -374 c231 -116 264 -133 272 -142 4 -4 -62
-7 -146 -7 -135 0 -369 -18 -664 -51 -49 -6 -133 -14 -185 -20 -52 -5 -185
-19 -295 -30 -400 -42 -689 -39 -1050 10 -77 10 -183 24 -235 30 -172 21 -351
62 -565 129 -55 18 -167 48 -250 67 -82 20 -157 39 -165 42 -32 12 109 19 420
21 492 2 2249 37 2295 45 11 2 101 3 200 2 l180 -2 188 -94z m-14663 50 c570
-25 1020 -56 1290 -90 41 -5 134 -17 205 -25 72 -9 159 -20 195 -25 36 -5 103
-14 150 -20 47 -6 103 -15 125 -20 54 -12 182 -27 347 -41 162 -14 181 -35 24
-25 -258 16 -289 17 -296 6 -4 -7 -15 -8 -31 -2 -28 11 -99 4 -99 -9 0 -5 66
-9 148 -10 81 0 568 -2 1082 -5 514 -2 1948 -6 3185 -8 2169 -5 2634 -1 2751
25 98 21 153 30 329 55 474 66 745 83 1083 66 313 -16 615 -46 637 -62 6 -4
42 -13 80 -20 109 -19 370 -85 598 -151 267 -77 360 -96 538 -110 312 -24
1117 17 1694 86 445 54 1154 82 1261 50 54 -16 156 -73 161 -91 4 -13 -50 -19
-240 -30 -90 -5 -115 -9 -107 -19 7 -8 5 -18 -5 -31 -8 -10 -15 -22 -15 -26 0
-5 80 -8 178 -9 97 0 219 -4 271 -7 l94 -7 54 -60 c66 -74 168 -212 168 -228
0 -8 -23 -13 -65 -14 -110 -4 -499 -40 -895 -84 -136 -15 -172 -35 -158 -88
11 -44 53 -54 176 -41 176 18 564 59 658 70 126 15 384 13 396 -2 15 -21 83
-179 83 -194 0 -11 -23 -13 -135 -7 -118 5 -135 4 -135 -9 0 -9 -8 -19 -17
-22 -9 -4 -162 -12 -340 -18 -254 -10 -348 -9 -441 0 -326 35 -365 36 -719 24
-192 -7 -532 -17 -758 -22 -225 -5 -615 -14 -865 -20 -933 -22 -1422 -64
-1502 -130 -19 -15 -21 -21 -11 -43 14 -30 48 -49 116 -66 72 -17 244 -41 304
-41 64 0 82 -7 76 -28 -6 -26 19 -53 52 -54 17 0 98 4 180 10 179 13 308 20
555 27 353 11 607 33 970 85 113 16 237 32 275 36 39 4 78 11 87 15 20 11 260
42 433 58 189 17 304 21 885 31 300 6 592 15 650 20 58 5 168 12 246 16 l140
7 32 -100 c18 -55 32 -104 32 -109 0 -6 -48 -22 -107 -36 -60 -14 -164 -42
-233 -62 -131 -39 -300 -74 -485 -101 -60 -9 -137 -20 -170 -25 -33 -5 -121
-16 -195 -26 -194 -23 -244 -43 -227 -88 5 -11 19 -16 51 -16 124 0 654 65
851 105 79 16 290 70 442 113 91 26 103 27 107 13 3 -9 14 -69 26 -134 19
-111 19 -144 1 -133 -4 3 -84 -11 -177 -30 -93 -19 -248 -48 -344 -65 -96 -16
-222 -39 -280 -49 -98 -18 -146 -26 -310 -50 -36 -6 -157 -21 -270 -35 -113
-14 -254 -31 -315 -39 -135 -18 -302 -25 -594 -28 -327 -2 -419 -11 -494 -47
-52 -25 -84 -32 -197 -42 -130 -12 -627 -14 -720 -4 -60 7 -565 -12 -708 -27
-113 -11 -166 -30 -179 -63 -9 -26 25 -52 100 -75 103 -32 107 -34 57 -37 -25
-2 -76 -7 -115 -13 -61 -8 -426 -28 -860 -45 -193 -8 -386 -9 -540 -2 -71 3
-224 -1 -340 -9 -386 -25 -746 -33 -1219 -24 -295 6 -463 13 -470 20 -7 7 2
10 31 10 23 0 97 7 165 15 202 25 258 43 191 62 -16 5 -404 8 -863 8 -845 0
-1040 -6 -1330 -41 -173 -21 -307 -31 -655 -52 -263 -15 -498 -17 -1905 -17
-910 0 -1618 -4 -1635 -9 -46 -14 -22 5 37 28 65 26 71 51 13 51 -44 0 -184
-8 -577 -30 -455 -25 -415 -22 -837 -60 -91 -8 -168 -12 -171 -8 -3 5 -4 63
-2 130 l4 121 152 -5 c253 -10 636 21 776 62 74 21 122 44 115 55 -3 5 -34 10
-68 10 -81 0 -219 24 -282 48 -59 24 -68 21 155 56 268 43 488 66 810 86 207
13 265 27 374 85 202 110 369 135 885 135 408 0 585 -13 951 -70 70 -11 308
-44 430 -60 85 -11 263 -27 393 -36 l88 -6 -40 -35 c-23 -19 -41 -39 -41 -44
0 -27 185 -71 372 -90 62 -6 131 -15 153 -21 22 -6 74 -9 116 -8 46 1 80 -3
84 -9 3 -6 3 -11 -2 -11 -4 0 -62 -9 -127 -20 -66 -11 -196 -27 -290 -35 -146
-12 -172 -17 -190 -35 -20 -19 -20 -22 -4 -47 9 -15 29 -31 45 -36 62 -18 367
4 663 49 58 8 134 20 170 25 36 5 92 14 125 19 127 19 334 48 425 60 258 33
450 68 605 109 275 73 602 111 970 111 149 0 302 5 340 10 219 30 289 35 475
35 202 0 247 -4 465 -43 211 -38 292 -45 510 -46 151 -1 241 3 288 13 129 26
199 63 170 92 -15 15 -128 28 -243 29 -210 0 -945 90 -1001 121 -27 15 -81 16
-834 10 -736 -6 -1059 -31 -1375 -107 -153 -37 -249 -54 -302 -54 -35 0 -52
-5 -67 -21 -18 -20 -33 -22 -173 -26 -133 -5 -533 12 -788 33 -82 7 -77 14 26
33 132 24 195 53 169 79 -3 4 -176 10 -383 13 -339 6 -386 9 -467 28 -521 125
-956 175 -1625 187 -484 9 -633 -4 -1113 -102 -86 -17 -136 -38 -144 -61 -8
-21 10 -30 78 -37 39 -5 59 -11 59 -20 0 -15 -16 -23 -70 -37 -38 -10 -428
-34 -497 -30 -150 7 -258 3 -493 -16 -146 -12 -371 -25 -500 -28 -129 -3 -254
-8 -277 -10 l-43 -5 0 103 c0 65 -6 123 -16 156 -8 29 -14 54 -12 55 2 1 42 8
90 14 92 13 205 40 378 90 236 69 310 83 595 118 153 18 284 40 292 48 15 15
-10 35 -51 41 -100 15 -672 5 -885 -15 -142 -14 -425 -58 -521 -83 -10 -2
-160 181 -160 195 0 4 10 8 23 8 12 0 65 9 117 19 91 19 228 38 425 60 50 6
162 13 250 16 88 3 171 8 184 11 22 5 23 7 9 21 -12 11 -45 16 -124 20 -60 3
-116 9 -124 13 -15 9 -15 8 66 25 14 3 24 11 21 18 -6 17 -323 11 -690 -14
-164 -11 -307 -17 -317 -14 -22 7 -87 162 -74 175 5 4 72 16 149 25 77 9 176
20 220 26 140 17 264 29 480 46 287 23 1264 25 1495 3 213 -20 759 -19 1100 3
146 9 353 21 460 27 107 6 272 15 365 21 94 5 510 12 925 15 415 3 827 9 915
15 88 5 309 16 490 24 806 35 1163 57 1535 94 133 14 461 50 650 71 47 6 148
17 225 25 307 32 463 56 637 97 89 21 121 39 96 55 -17 11 -387 7 -513 -6 -55
-6 -161 -15 -235 -21 -161 -13 -402 -36 -595 -56 -1060 -109 -1488 -130 -2925
-144 -492 -5 -920 -11 -950 -14 -55 -6 -427 -26 -840 -46 -118 -6 -301 -15
-405 -22 -204 -12 -727 -5 -920 12 -193 17 -959 24 -1241 11 -302 -14 -647
-42 -849 -71 -38 -5 -124 -17 -190 -25 -66 -9 -130 -18 -142 -20 -17 -4 -30 8
-68 60 -56 80 -137 160 -229 228 -38 29 -63 53 -55 54 8 1 73 6 144 12 72 6
182 16 245 21 191 17 455 36 750 56 144 9 287 32 314 49 32 21 39 52 17 74
-16 16 -64 19 -507 29 -269 7 -534 14 -589 17 -99 4 -474 -9 -612 -21 l-72 -7
-61 57 c-34 31 -89 75 -123 98 l-62 43 30 6 c52 11 499 10 755 -1z m-2047 -57
c-7 -2 -19 -2 -25 0 -7 3 -2 5 12 5 14 0 19 -2 13 -5z m11414 1 c-3 -3 -12 -4
-19 -1 -8 3 -5 6 6 6 11 1 17 -2 13 -5z m-11502 -29 c-39 -18 -67 -19 -35 -1
14 8 34 14 45 14 15 0 13 -3 -10 -13z m11434 11 c-12 -10 -79 -16 -79 -6 0 5
19 10 42 10 23 0 39 -2 37 -4z m-139 -25 c-8 -5 -51 -15 -95 -22 -44 -7 -84
-16 -89 -21 -6 -4 -18 -8 -28 -8 -10 0 -25 -8 -34 -19 -14 -16 -32 -19 -118
-20 -55 0 -137 -3 -181 -6 -112 -6 -90 -1 315 71 47 9 105 19 130 24 64 11
119 12 100 1z m-10602 -56 c148 -22 268 -59 420 -131 189 -88 319 -182 498
-359 126 -125 191 -212 372 -495 79 -124 199 -304 267 -400 181 -258 239 -349
276 -437 l34 -78 -1 -380 c0 -209 -5 -407 -11 -440 -6 -33 -24 -132 -41 -220
-17 -88 -41 -230 -52 -315 -32 -232 -63 -378 -111 -515 -73 -210 -274 -632
-398 -837 -39 -64 -71 -120 -71 -125 -1 -13 -77 -66 -210 -145 -218 -129 -416
-218 -560 -252 -41 -10 -91 -22 -110 -26 -87 -22 -225 -32 -327 -26 -277 17
-470 70 -753 208 -287 140 -496 317 -630 532 -49 79 -180 338 -180 355 0 6 -4
19 -9 29 -14 28 -28 63 -54 137 -41 120 -50 153 -62 245 -1 8 -5 22 -8 30 -3
8 -8 31 -12 50 -3 19 -10 55 -15 80 -4 25 -13 75 -19 113 -18 110 -52 307 -71
402 -52 272 -61 363 -67 645 -6 268 1 375 52 780 43 339 104 583 193 770 44
93 105 190 162 255 36 41 42 45 37 24 -6 -25 -6 -26 38 -19 56 9 212 84 312
151 76 51 184 131 328 241 176 136 270 165 528 167 93 1 197 -5 255 -14z
m3990 -92 c-10 -2 -26 -2 -35 0 -10 3 -2 5 17 5 19 0 27 -2 18 -5z m-5233
-213 c-10 -11 -23 -20 -29 -20 -6 1 0 10 13 20 30 26 39 26 16 0z m18955
-1702 c0 -17 5 -60 11 -95 6 -35 8 -67 4 -71 -8 -9 -144 -21 -295 -26 -102 -4
-106 -3 -35 4 44 4 114 13 155 19 41 5 81 11 87 11 21 0 43 56 37 89 -4 17
-10 31 -15 31 -5 0 -9 7 -9 16 0 11 -5 14 -16 10 -9 -3 -20 -6 -26 -6 -6 0 -8
-7 -4 -15 3 -10 -1 -15 -13 -15 -10 0 -31 -7 -47 -14 -16 -8 -66 -16 -111 -18
-48 -2 -84 -7 -87 -14 -2 -6 -24 -10 -50 -9 -25 1 -46 -2 -46 -6 0 -5 -11 -9
-25 -9 -14 0 -25 -4 -25 -8 0 -5 -46 -12 -102 -15 -56 -4 -104 -10 -107 -14
-3 -4 -31 -8 -61 -9 -30 0 -107 -6 -170 -13 -63 -6 -186 -14 -273 -17 -88 -3
-169 -9 -182 -14 -13 -5 -51 -12 -84 -16 -58 -6 -75 -16 -48 -28 6 -3 -9 -3
-34 0 -29 4 -56 1 -70 -7 -17 -9 -130 -14 -404 -20 -513 -10 -529 -12 -572
-49 -23 -21 -44 -30 -67 -30 -27 0 -39 -7 -62 -37 -44 -60 -80 -91 -131 -115
-44 -21 -61 -23 -203 -21 -85 1 -207 4 -270 8 -63 3 -178 8 -254 10 -76 2
-144 9 -149 14 -6 6 9 8 44 6 55 -5 398 -15 594 -18 211 -3 282 23 357 133 42
60 92 88 159 89 19 1 39 5 45 10 14 14 110 20 489 30 349 8 375 11 577 55 61
13 364 34 413 29 31 -4 270 27 385 49 30 6 129 28 220 49 233 55 239 57 300
69 30 7 69 15 85 20 17 4 42 8 58 9 24 1 27 -3 27 -31z m-570 -197 c30 -5 -7
-7 -115 -9 -293 -3 -385 -16 -404 -58 -17 -38 -14 -51 18 -73 28 -20 41 -21
378 -21 193 0 388 5 434 10 46 6 125 15 174 21 50 6 116 15 149 21 32 5 61 7
64 3 6 -6 -12 -130 -28 -195 -9 -37 -25 -107 -34 -150 l-5 -25 -201 -1 c-110
-1 -200 2 -200 7 0 5 32 10 70 10 39 1 82 2 98 4 15 1 56 3 92 5 70 3 114 20
129 48 11 22 34 222 26 230 -4 4 -29 7 -57 7 -38 0 -53 -5 -64 -20 -41 -57
-41 -57 -82 -39 -20 9 -64 18 -97 19 -33 2 -111 6 -172 10 -102 7 -113 6 -113
-8 0 -19 -36 -24 -42 -6 -5 16 -44 19 -283 25 -239 6 -252 9 -275 64 -23 56
22 104 112 118 67 11 368 13 428 3z m615 -181 c3 -6 -4 -10 -17 -10 -18 0 -20
2 -8 10 19 12 18 12 25 0z m-14568 -156 c-3 -3 -12 -4 -19 -1 -8 3 -5 6 6 6
11 1 17 -2 13 -5z m5683 -13 c113 -7 252 -15 309 -17 137 -4 445 -32 496 -44
22 -5 61 -10 88 -10 80 0 52 -17 -40 -23 -49 -4 -101 -9 -118 -12 -16 -3 -79
-15 -140 -26 -60 -11 -155 -26 -210 -34 -156 -21 -237 -33 -272 -41 -22 -4
-33 -2 -33 5 0 6 -4 11 -10 11 -5 0 -7 -7 -4 -15 4 -9 -1 -17 -12 -21 -11 -3
-28 -10 -39 -14 -32 -14 -112 -24 -100 -12 15 14 74 32 106 32 16 0 29 5 29
10 0 6 -9 10 -20 10 -11 0 -20 7 -20 15 0 8 9 15 20 15 19 0 70 40 70 55 0 10
-28 35 -39 35 -6 0 -11 5 -11 10 0 14 -37 12 -44 -2 -5 -10 -7 -10 -12 0 -3 6
-12 12 -20 12 -17 0 -19 17 -1 23 6 3 2 6 -10 6 -13 1 -23 7 -23 14 0 8 -4 7
-11 -3 -8 -11 -12 -12 -16 -2 -6 15 -494 18 -523 2 -15 -8 -18 -17 -13 -45 4
-23 2 -35 -6 -35 -6 0 -12 10 -12 23 l-2 22 -4 -22 c-4 -23 -43 -34 -43 -13 0
6 -7 10 -15 10 -8 0 -15 -4 -15 -10 0 -5 -16 -10 -35 -10 -19 0 -35 -4 -35 -9
0 -4 -24 -11 -52 -14 -29 -4 -54 -11 -56 -17 -2 -5 -15 -10 -28 -10 -13 0 -24
-4 -24 -10 0 -5 -7 -10 -15 -10 -8 0 -15 -4 -15 -10 0 -5 -18 -10 -40 -10 -22
0 -40 5 -40 10 0 6 -47 10 -120 10 -73 0 -120 -4 -120 -10 0 -5 -9 -10 -21
-10 -11 0 -17 5 -14 10 4 6 -18 10 -59 10 -37 0 -66 -4 -66 -10 0 -5 11 -10
25 -10 18 0 23 -4 19 -15 -7 -17 -60 -21 -66 -5 -5 15 -71 22 -88 10 -11 -9
-12 -13 -2 -17 21 -8 13 -23 -13 -23 -14 0 -25 -4 -25 -9 0 -4 -51 -11 -112
-15 -62 -4 -114 -11 -116 -17 -2 -5 -15 -9 -28 -9 -13 0 -24 -4 -24 -10 0 -5
-9 -10 -20 -10 -11 0 -20 -4 -20 -10 0 -6 -30 -10 -70 -10 -40 0 -70 4 -70 10
0 6 -7 10 -15 10 -8 0 -15 -4 -15 -10 0 -6 -32 -10 -75 -10 -43 0 -75 4 -75
10 0 6 -27 10 -60 10 -53 0 -60 2 -60 20 0 11 -4 20 -10 20 -5 0 -10 -9 -10
-20 0 -16 -7 -20 -34 -20 -22 0 -36 6 -40 16 -9 24 2 34 40 34 19 0 34 5 34
10 0 6 -55 10 -144 10 -104 0 -145 3 -148 12 -3 9 -98 13 -389 14 -505 3
-1142 13 -1148 19 -2 3 317 5 710 5 393 0 773 2 844 5 275 11 564 27 645 36
47 5 112 9 146 9 33 0 85 4 115 10 30 5 142 16 249 25 320 25 438 38 680 76
180 29 232 38 236 41 8 8 414 0 594 -11z m-580 -41 c0 -5 -9 -10 -20 -10 -11
0 -20 5 -20 10 0 6 9 10 20 10 11 0 20 -4 20 -10z m30 -2 c0 -17 -18 -44 -24
-37 -8 7 5 49 15 49 5 0 9 -6 9 -12z m5680 -24 c-38 -16 -80 -18 -80 -4 0 6 3
10 8 11 36 3 76 10 80 14 3 2 9 2 15 -2 5 -3 -5 -12 -23 -19z m-237 -11 c-40
-2 -106 -2 -145 0 -40 1 -8 3 72 3 80 0 112 -2 73 -3z m2372 -48 c181 -18 224
-25 231 -36 7 -11 -114 -1 -142 13 -24 11 -407 5 -659 -10 -88 -6 -248 -15
-355 -21 -210 -12 -255 -21 -263 -51 -3 -14 -10 -18 -21 -14 -11 4 -14 13 -11
25 4 11 2 19 -4 19 -6 0 -11 5 -11 11 0 6 9 9 20 6 12 -3 21 1 25 12 4 13 21
16 107 17 57 0 168 3 248 7 469 21 499 22 508 31 10 10 173 5 327 -9z m1215 0
c0 -8 -4 -15 -10 -15 -5 0 -10 7 -10 15 0 8 5 15 10 15 6 0 10 -7 10 -15z
m-210 -15 c0 -5 -4 -10 -10 -10 -5 0 -10 5 -10 10 0 6 5 10 10 10 6 0 10 -4
10 -10z m67 4 c-3 -3 -12 -4 -19 -1 -8 3 -5 6 6 6 11 1 17 -2 13 -5z m101 -1
c-10 -2 -26 -2 -35 0 -10 3 -2 5 17 5 19 0 27 -2 18 -5z m-4405 -20 c-7 -2
-19 -2 -25 0 -7 3 -2 5 12 5 14 0 19 -2 13 -5z m112 -13 c17 -4 64 -13 105
-20 41 -6 95 -16 120 -22 25 -5 124 -12 220 -14 96 -3 252 -12 345 -21 94 -9
183 -16 199 -16 24 0 26 -1 11 -10 -11 -6 -54 -7 -109 -3 -50 4 -199 13 -331
21 -227 14 -292 21 -410 44 -27 5 -90 16 -138 24 -48 7 -93 19 -100 26 -12 12
22 9 88 -9z m3900 10 c-28 -12 -55 -12 -55 0 0 6 17 10 38 9 30 0 33 -2 17 -9z
m158 3 c-24 -2 -62 -2 -85 0 -24 2 -5 4 42 4 47 0 66 -2 43 -4z m-263 -13 c0
-7 -19 -8 -52 -4 -71 9 -73 14 -5 14 33 0 57 -4 57 -10z m-262 -14 c3 -4 -27
-6 -66 -6 -40 0 -75 0 -79 -1 -4 0 -9 4 -11 10 -4 11 145 7 156 -3z m52 4 c0
-5 -4 -10 -10 -10 -5 0 -10 5 -10 10 0 6 5 10 10 10 6 0 10 -4 10 -10z m-9087
-17 c-7 -2 -19 -2 -25 0 -7 3 -2 5 12 5 14 0 19 -2 13 -5z m1337 -13 c0 -5 -4
-10 -10 -10 -5 0 -10 5 -10 10 0 6 5 10 10 10 6 0 10 -4 10 -10z m5729 -16
c17 -4 31 -10 31 -15 0 -11 -74 -12 -121 -2 -33 7 -33 7 -9 14 34 9 61 10 99
3z m151 -14 c-38 -12 -99 -12 -80 0 8 5 35 9 60 9 37 -1 41 -2 20 -9z m-10071
-16 c8 -7 -74 -2 -99 6 -16 5 -2 6 35 3 33 -3 62 -7 64 -9z m4055 -6 c5 -10 7
-10 12 0 7 16 37 16 32 0 -3 -7 -19 -15 -36 -19 -27 -5 -32 -3 -32 12 0 21 15
25 24 7z m5519 5 c-7 -2 -19 -2 -25 0 -7 3 -2 5 12 5 14 0 19 -2 13 -5z
m-9480 -20 c-7 -2 -21 -2 -30 0 -10 3 -4 5 12 5 17 0 24 -2 18 -5z m3924 -19
c-3 -3 -12 -4 -19 -1 -8 3 -5 6 6 6 11 1 17 -2 13 -5z m-77 -24 c-8 -6 -24 -9
-35 -9 -15 0 -13 4 10 14 32 14 49 10 25 -5z m-88 -80 c-7 -19 -17 -24 -58
-26 -27 -1 -128 -7 -224 -13 -96 -6 -265 -16 -375 -21 -110 -5 -274 -12 -365
-17 -212 -10 -801 -10 -1040 0 -507 22 -764 37 -975 57 -126 11 -219 18 -394
26 -90 5 -120 9 -107 16 10 5 27 7 39 4 12 -3 92 -8 177 -11 85 -3 189 -10
230 -15 85 -10 199 -16 745 -38 127 -5 239 -10 250 -12 11 -1 248 -4 528 -6
370 -4 507 -2 507 6 0 6 4 9 8 6 4 -2 102 -1 217 4 116 5 338 14 495 20 157 6
295 13 307 16 12 2 25 14 29 27 4 12 9 17 11 11 2 -6 0 -21 -5 -34z m-3565 24
c-3 -3 -12 -4 -19 -1 -8 3 -5 6 6 6 11 1 17 -2 13 -5z m1271 -21 c-15 -2 -42
-2 -60 0 -18 2 -6 4 27 4 33 0 48 -2 33 -4z"/>
<path d="M18370 10540 c-58 -4 -115 -12 -127 -18 -26 -15 -30 -44 -8 -62 20
-17 205 -6 334 20 95 19 123 32 106 49 -13 12 -176 18 -305 11z"/>
<path d="M21070 10418 c-91 -3 -367 -7 -615 -8 -247 0 -476 -3 -507 -7 -67 -7
-102 -32 -95 -69 2 -14 0 -27 -6 -31 -18 -11 -476 -93 -522 -93 -16 0 -37 8
-48 18 -18 16 -63 17 -701 14 -759 -3 -1006 -16 -1006 -53 0 -26 119 -54 557
-131 46 -8 64 -16 68 -29 12 -38 42 -42 275 -42 399 1 713 45 1545 218 171 36
282 45 645 55 642 18 970 60 970 125 0 8 -8 19 -18 24 -23 12 -334 18 -542 9z"/>
<path d="M16756 10299 c-192 -7 -529 -31 -634 -45 -75 -9 -104 -62 -61 -105
25 -25 12 -25 459 10 342 28 404 38 513 83 32 14 47 26 47 39 0 16 -8 19 -44
19 -24 0 -50 2 -58 3 -7 2 -107 0 -222 -4z"/>
<path d="M12360 10116 c-5 -4 -119 -13 -555 -41 -121 -8 -278 -19 -350 -25
-601 -50 -1363 -69 -1590 -41 -79 9 -206 12 -450 10 -318 -4 -342 -5 -374 -24
-105 -62 -38 -110 169 -122 52 -3 106 -11 120 -18 18 -8 69 -9 185 -4 88 4
288 8 445 8 326 2 1086 26 1235 40 477 45 896 105 1138 163 68 17 87 25 85 37
-3 15 -48 28 -58 17z"/>
<path d="M17375 9914 c-478 -41 -611 -46 -1005 -38 -212 4 -572 8 -800 8 -351
1 -436 -2 -550 -17 -160 -22 -228 -25 -720 -26 -362 -1 -462 3 -930 31 -291
18 -925 17 -1003 0 -66 -15 -117 -53 -117 -87 0 -30 40 -69 87 -83 21 -7 76
-17 123 -23 81 -11 86 -14 100 -43 l15 -31 680 -3 c732 -3 974 7 1150 48 87
20 567 100 685 114 197 23 432 28 735 16 955 -38 1390 -17 1839 86 118 27 150
40 141 55 -8 13 -248 9 -430 -7z"/>
<path d="M19430 9079 c-279 -13 -494 -27 -512 -34 -26 -10 -33 -44 -14 -64 15
-14 55 -16 379 -14 380 2 558 15 692 50 56 15 70 23 70 38 0 12 -9 22 -25 26
-33 9 -370 8 -590 -2z"/>
<path d="M10775 8885 c-930 -60 -1025 -72 -1025 -135 0 -31 29 -39 140 -34 58
2 220 9 360 14 381 15 641 36 800 65 95 17 202 42 235 55 30 11 33 36 5 43
-36 9 -311 5 -515 -8z"/>
<path d="M16650 8775 c-377 -22 -665 -51 -697 -71 -30 -19 -30 -59 -1 -75 22
-12 104 -10 548 10 118 6 294 13 390 16 324 12 485 23 560 41 123 28 133 61
23 76 -116 15 -586 17 -823 3z"/>
<path d="M5175 10730 c-129 -14 -201 -45 -525 -224 -316 -176 -378 -222 -478
-355 -123 -163 -179 -253 -221 -355 -92 -220 -125 -377 -141 -666 -23 -394 -5
-941 40 -1225 5 -33 14 -94 20 -135 15 -98 58 -335 70 -380 5 -19 16 -66 26
-105 22 -94 84 -288 95 -300 5 -5 9 -15 9 -21 0 -23 103 -228 157 -311 70
-109 79 -120 203 -243 95 -96 286 -240 318 -240 6 0 12 -4 14 -9 4 -12 221
-96 298 -116 36 -9 79 -20 95 -25 164 -47 505 -44 695 7 30 8 69 18 85 23 53
14 166 59 245 99 419 209 734 675 851 1256 22 109 71 396 88 515 41 280 53
661 26 870 -39 314 -122 492 -414 890 -59 80 -160 219 -226 310 -165 228 -210
283 -306 375 -134 128 -300 229 -480 293 -170 60 -387 89 -544 72z m328 -175
c292 -69 592 -287 822 -599 129 -175 302 -470 475 -811 116 -228 149 -308 179
-430 23 -93 40 -271 35 -365 -7 -124 -14 -203 -24 -244 -5 -22 -25 -124 -45
-226 -46 -231 -144 -634 -185 -760 -41 -126 -147 -338 -212 -425 -69 -94 -227
-249 -311 -308 -142 -98 -286 -165 -452 -208 -80 -21 -112 -23 -290 -23 -186
0 -207 2 -305 27 -150 40 -211 62 -334 125 -137 69 -239 146 -348 261 -102
106 -172 209 -238 346 -42 88 -105 250 -124 325 -4 14 -14 50 -22 80 -38 138
-76 353 -124 695 -36 260 -49 939 -22 1160 34 276 80 443 169 605 104 191 320
400 618 597 164 109 287 167 410 194 58 12 248 3 328 -16z"/>
<path d="M5293 10206 c-87 -21 -108 -56 -35 -56 119 -1 246 -66 459 -237 93
-74 174 -137 181 -140 30 -13 21 11 -33 92 -121 182 -284 311 -435 345 -56 12
-72 11 -137 -4z"/>
<path d="M4905 10036 c-63 -15 -169 -64 -232 -107 -69 -47 -198 -174 -249
-246 -52 -71 -104 -181 -104 -218 0 -20 5 -25 23 -25 18 0 28 10 43 42 55 122
161 242 296 336 66 45 304 172 323 172 15 0 65 42 60 51 -8 13 -100 10 -160
-5z"/>
<path d="M4990 9855 c-70 -22 -129 -56 -161 -93 -22 -24 -27 -38 -20 -45 7 -7
16 -6 28 5 20 18 132 76 206 107 84 36 43 56 -53 26z"/>
<path d="M5899 9463 c10 -21 54 -96 96 -168 248 -419 354 -792 355 -1250 0
-159 10 -295 21 -295 16 0 41 75 55 165 8 50 14 154 14 231 0 450 -99 796
-324 1129 -71 105 -186 225 -216 225 -20 0 -20 0 -1 -37z"/>
<path d="M5205 9474 c-142 -36 -279 -162 -306 -282 -10 -48 5 -65 28 -32 9 14
44 53 77 88 82 86 163 126 268 131 73 3 84 1 154 -33 189 -90 346 -264 459
-511 57 -126 81 -140 72 -42 -22 226 -252 523 -495 640 -72 35 -95 41 -160 43
-43 2 -86 1 -97 -2z"/>
<path d="M4525 9240 c-59 -94 -106 -234 -126 -381 -16 -117 0 -278 43 -441 16
-62 49 -189 73 -283 51 -200 63 -237 79 -232 6 2 12 33 14 74 3 83 -21 214
-79 416 -58 208 -72 306 -66 461 5 138 26 237 73 349 32 75 26 95 -11 37z"/>
<path d="M4703 8863 c-4 -21 -8 -85 -8 -143 0 -111 15 -170 43 -170 13 0 14
17 9 128 -4 70 -7 148 -7 175 0 59 -25 66 -37 10z"/>
<path d="M5520 8746 c0 -8 7 -16 15 -20 23 -8 82 -107 105 -175 71 -211 64
-432 -17 -584 -41 -77 -138 -172 -191 -188 -111 -32 -221 69 -279 258 -25 84
-27 99 -27 298 0 159 4 234 17 309 10 54 15 101 12 105 -18 17 -73 -106 -101
-225 -26 -112 -26 -377 0 -489 51 -227 175 -358 337 -359 287 -1 478 443 353
822 -37 112 -106 207 -175 243 -46 23 -49 23 -49 5z"/>
<path d="M6628 8172 c2 -108 -2 -161 -19 -252 -29 -156 -34 -200 -20 -200 15
0 47 76 67 158 29 125 17 391 -20 421 -8 7 -10 -26 -8 -127z"/>
<path d="M5440 8238 c0 -34 -28 -150 -49 -202 -25 -63 22 -42 57 25 19 37 22
57 20 123 -2 53 -7 81 -15 84 -9 2 -13 -8 -13 -30z"/>
<path d="M6080 8149 c-6 -23 -20 -80 -30 -128 -29 -129 -58 -235 -84 -304 -58
-153 -160 -319 -256 -414 -64 -64 -69 -83 -22 -83 57 0 187 101 252 195 116
169 204 489 185 675 -11 112 -26 131 -45 59z"/>
<path d="M4332 8025 c-17 -36 -15 -228 3 -353 43 -302 145 -519 312 -664 71
-61 76 -35 11 59 -142 203 -203 354 -238 588 -6 44 -22 141 -35 215 -14 75
-22 146 -18 158 8 32 -21 29 -35 -3z"/>
<path d="M4794 7997 c-4 -10 -4 -49 -1 -85 16 -176 100 -378 201 -477 89 -88
138 -109 258 -110 53 0 100 4 104 8 13 12 -15 25 -71 33 -199 27 -314 163
-430 509 -46 136 -51 146 -61 122z"/>
<path d="M6301 7318 c-106 -220 -201 -354 -355 -502 -87 -84 -245 -212 -337
-273 -38 -25 -69 -52 -69 -59 0 -8 11 -21 25 -30 25 -16 29 -16 118 29 243
122 497 374 616 613 43 85 50 104 77 202 16 61 19 148 4 157 -5 3 -41 -58 -79
-137z"/>
<path d="M4704 6695 c-8 -21 12 -70 54 -130 88 -125 217 -195 360 -195 88 0
81 21 -23 63 -121 49 -171 82 -276 184 -53 51 -99 93 -103 93 -4 0 -9 -7 -12
-15z"/>
<path d="M3892 10022 c-23 -24 -32 -42 -32 -67 0 -18 -6 -40 -14 -47 -7 -8
-17 -24 -20 -36 -4 -12 -12 -22 -17 -22 -5 0 -9 -7 -9 -15 0 -8 -7 -15 -15
-15 -8 0 -15 -9 -15 -19 0 -11 -4 -23 -10 -26 -5 -3 -10 -19 -10 -35 0 -16 -4
-31 -9 -34 -5 -3 -11 -29 -14 -58 -3 -29 -13 -100 -21 -158 -20 -133 -48 -479
-40 -492 3 -5 3 -26 -1 -45 -4 -23 -9 -32 -14 -24 -4 7 -11 -43 -14 -110 -14
-250 -5 -444 18 -435 7 2 16 -5 19 -17 8 -32 7 -87 -2 -87 -4 0 -8 -16 -8 -35
0 -21 5 -35 12 -35 9 0 12 -19 12 -62 -1 -54 8 -120 28 -228 8 -39 11 -72 13
-113 1 -34 3 -37 16 -23 9 8 14 19 13 23 -4 15 13 53 24 53 6 0 20 -8 31 -17
19 -18 20 -17 14 57 -3 41 -15 143 -27 225 -43 299 -29 1194 20 1310 5 11 16
66 26 123 9 56 21 102 26 102 4 0 8 8 8 18 0 11 7 33 16 51 9 17 13 38 10 46
-7 20 3 45 18 45 31 0 61 153 34 174 -7 6 -18 22 -24 36 l-11 24 -31 -32z"/>
<path d="M3750 7760 c0 -5 7 -10 15 -10 8 0 15 5 15 10 0 6 -7 10 -15 10 -8 0
-15 -4 -15 -10z"/>
<path d="M3853 7640 c0 -25 2 -35 4 -22 2 12 2 32 0 45 -2 12 -4 2 -4 -23z"/>
<path d="M3795 7616 c-14 -29 -14 -48 -5 -142 11 -108 45 -269 61 -289 4 -6
11 -34 15 -63 3 -28 10 -52 15 -52 5 0 9 -7 9 -15 0 -18 45 -138 71 -186 10
-20 19 -41 19 -47 0 -18 61 -145 91 -189 16 -23 29 -47 29 -54 0 -7 11 -27 25
-45 14 -18 25 -36 25 -40 0 -4 8 -14 18 -23 10 -9 28 -29 41 -46 30 -41 161
-175 169 -175 4 0 18 -10 32 -23 14 -13 31 -22 38 -19 6 2 12 -3 12 -11 0 -17
47 -40 62 -31 6 4 8 2 5 -4 -8 -12 47 -62 68 -62 7 0 27 -13 43 -29 16 -17 42
-33 58 -37 16 -3 50 -19 76 -35 27 -16 74 -33 110 -39 35 -5 68 -16 73 -23 11
-15 125 -57 153 -56 15 0 14 2 -3 10 -14 6 0 7 43 4 70 -7 115 -23 105 -38
-10 -16 18 -25 92 -32 222 -20 455 -8 573 31 40 13 78 24 85 24 6 0 43 16 80
34 38 19 81 38 97 41 16 4 44 16 62 28 39 26 74 43 107 53 26 7 60 41 61 60 0
6 -14 17 -31 24 -24 10 -36 11 -50 2 -10 -7 -26 -12 -34 -12 -8 0 -15 -4 -15
-10 0 -5 -7 -10 -15 -10 -8 0 -15 -5 -15 -11 0 -7 -11 -9 -26 -6 -18 3 -29 -1
-37 -14 -7 -11 -22 -19 -35 -19 -13 0 -33 -5 -45 -12 -12 -6 -44 -17 -72 -24
-27 -8 -81 -25 -120 -38 -83 -30 -156 -32 -455 -11 -187 13 -237 20 -325 45
-22 6 -49 13 -60 15 -11 2 -33 7 -50 11 -16 3 -58 19 -92 35 -34 16 -66 29
-71 29 -20 0 -306 173 -338 204 -6 6 -28 25 -49 41 -90 69 -225 222 -225 254
0 5 -4 11 -9 13 -25 10 -185 307 -198 368 -3 17 -9 30 -14 30 -5 0 -9 8 -9 18
0 10 -4 22 -8 28 -5 5 -16 45 -26 89 -10 44 -23 89 -28 100 -17 30 -48 148
-67 255 -10 53 -21 88 -24 80 -5 -11 -8 -12 -13 -2 -3 6 -14 12 -25 12 -10 0
-19 5 -19 10 0 6 3 10 8 10 4 0 8 11 8 25 2 35 -12 31 -31 -9z m420 -1166 c3
-5 1 -10 -4 -10 -6 0 -11 5 -11 10 0 6 2 10 4 10 3 0 8 -4 11 -10z m355 -320
c0 -5 -2 -10 -4 -10 -3 0 -8 5 -11 10 -3 6 -1 10 4 10 6 0 11 -4 11 -10z"/>
<path d="M13700 8370 c0 -5 9 -10 20 -10 11 0 20 5 20 10 0 6 -9 10 -20 10
-11 0 -20 -4 -20 -10z"/>
<path d="M15113 8323 c9 -2 25 -2 35 0 9 3 1 5 -18 5 -19 0 -27 -2 -17 -5z"/>
<path d="M14512 8248 c2 -6 10 -14 16 -16 7 -2 10 2 6 12 -7 18 -28 22 -22 4z"/>
<path d="M14560 8250 c0 -5 4 -10 9 -10 6 0 13 5 16 10 3 6 -1 10 -9 10 -9 0
-16 -4 -16 -10z"/>
<path d="M11818 8193 c6 -2 18 -2 25 0 6 3 1 5 -13 5 -14 0 -19 -2 -12 -5z"/>
</g>
</svg>
